<svg xmlns="http://www.w3.org/2000/svg" width="2000" height="338" viewBox="0 0 2000 338" version="1.1">
	<path d="M 521.583 1.032 C 498.473 4.696, 481.615 14.347, 471.340 29.796 C 466.566 36.974, 461.692 49.842, 459.332 61.500 C 456.779 74.109, 456.781 112.347, 459.336 125.500 C 466.817 164.026, 483.668 178.965, 522.997 181.942 C 544.147 183.543, 577.341 179.678, 596.250 173.413 L 601 171.839 601 128.920 L 601 86 566 86 L 531 86 531 97 L 531 108 554.500 108 L 578 108 578 131.441 C 578 144.334, 577.612 155.122, 577.139 155.414 C 574.876 156.813, 555.991 159.176, 542.916 159.697 C 497.762 161.498, 484.680 148.938, 482.440 101.636 C 481.388 79.427, 484.199 58.897, 489.950 46.784 C 492.868 40.636, 499.120 33.600, 504.429 30.489 C 516.864 23.201, 531.654 21.327, 564.294 22.903 C 576.796 23.506, 587.934 24, 589.046 24 C 590.967 24, 591.054 23.466, 590.784 13.250 L 590.500 2.500 585 1.807 C 575.625 0.627, 527.825 0.042, 521.583 1.032 M 1618 0.655 C 1583.609 5.212, 1565.317 22.177, 1557.786 56.500 C 1554.929 69.520, 1554.204 102.977, 1556.414 119.785 C 1562.497 166.035, 1582.861 182.296, 1634.500 182.136 C 1681.754 181.991, 1703.762 164.558, 1711.681 121 C 1713.813 109.274, 1714.096 72.785, 1712.150 60.500 C 1705.169 16.416, 1686.981 1.509, 1639 0.544 C 1629.375 0.350, 1619.925 0.400, 1618 0.655 M -0 3.472 C -0 3.939, 9.893 30.302, 42.980 118 C 52.422 143.025, 61.506 167.213, 63.168 171.750 L 66.189 180 80.646 180 L 95.102 180 96.554 176.525 C 97.353 174.614, 104.579 155.601, 112.612 134.275 C 140.179 61.094, 160.785 6.498, 161.499 4.750 C 162.159 3.135, 161.178 3, 148.736 3 L 135.258 3 114.701 59.750 C 95.748 112.076, 88.121 134.676, 83.480 152.264 C 82.499 155.985, 81.562 158.895, 81.399 158.732 C 81.235 158.569, 78.333 149.237, 74.949 137.994 C 71.565 126.752, 62.047 99.091, 53.797 76.527 C 45.547 53.962, 36.867 30.100, 34.507 23.500 C 32.147 16.900, 29.444 9.588, 28.500 7.250 L 26.783 3 13.391 3 C 6.026 3, -0 3.212, -0 3.472 M 292 91.500 L 292 180 304.500 180 L 317 180 317 91.500 L 317 3 304.500 3 L 292 3 292 91.500 M 741 91.500 L 741 180 752.993 180 L 764.986 180 765.243 112.167 L 765.500 44.333 813.994 112.167 L 862.488 180 875.244 180 L 888 180 888 91.500 L 888 3 876.007 3 L 864.014 3 863.757 71.827 L 863.500 140.655 815 71.829 L 766.500 3.004 753.750 3.002 L 741 3 741 91.500 M 1036 91.500 L 1036 180 1095 180 L 1154 180 1154 168.500 L 1154 157 1107 157 L 1060 157 1060 128.500 L 1060 100 1100.500 100 L 1141 100 1141 89.500 L 1141 79 1100.500 79 L 1060 79 1060 52.010 L 1060 25.020 1105.750 24.760 L 1151.500 24.500 1151.784 13.750 L 1152.068 3 1094.034 3 L 1036 3 1036 91.500 M 1292 13.924 L 1292 25 1326.750 25.008 C 1345.862 25.012, 1364.425 25.477, 1368 26.041 C 1383.109 28.426, 1390.632 32.849, 1394.837 41.819 C 1397.242 46.950, 1397.498 48.614, 1397.483 59 C 1397.462 72.646, 1395.442 78.495, 1388.556 84.842 C 1379.862 92.855, 1369.323 94.982, 1338.250 94.992 L 1316 95 1316 70.500 L 1316 46 1304 46 L 1292 46 1292 113 L 1292 180 1304 180 L 1316 180 1316 148.500 L 1316 117 1335.817 117 L 1355.634 117 1363.571 128.750 C 1367.936 135.213, 1377.538 149.388, 1384.907 160.250 L 1398.306 180 1413.204 180 L 1428.101 180 1423.673 173.750 C 1404.523 146.717, 1382.890 115.622, 1382.714 114.876 C 1382.596 114.378, 1385.549 112.891, 1389.276 111.572 C 1411.301 103.780, 1421.608 88.341, 1422.703 61.500 C 1424.010 29.457, 1412.306 12.727, 1383.500 5.462 C 1377.518 3.954, 1370.353 3.635, 1334.250 3.272 L 1292 2.848 1292 13.924 M 1854 91.500 L 1854 180 1865.500 180 L 1877 180 1877 111.941 C 1877 72.254, 1877.372 44.112, 1877.893 44.434 C 1878.384 44.738, 1900.480 75.364, 1926.995 112.493 L 1975.204 180 1987.602 180 L 2000 180 2000 91.500 L 2000 3 1988.507 3 L 1977.014 3 1976.757 72.020 L 1976.500 141.040 1935.522 82.848 C 1912.984 50.842, 1891.159 19.797, 1887.022 13.860 L 1879.500 3.064 1866.750 3.032 L 1854 3 1854 91.500 M 1624.500 22.586 C 1595.206 26.749, 1585.411 36.872, 1581.039 67.500 C 1579.709 76.818, 1579.728 108.903, 1581.070 118.549 C 1584.093 140.284, 1592.053 151.807, 1607.349 156.593 C 1614.225 158.745, 1641.267 159.681, 1650.432 158.085 C 1666.130 155.352, 1676.293 148.423, 1681.444 136.944 C 1686.701 125.230, 1688.362 113.982, 1688.375 90 C 1688.399 44.804, 1680.523 28.540, 1656.446 24.070 C 1649.951 22.864, 1629.295 21.904, 1624.500 22.586 M 1855.500 269.026 C 1840.173 272.119, 1833.944 282.065, 1834.035 303.299 C 1834.108 320.280, 1838.038 329.851, 1846.665 334.057 C 1853.060 337.176, 1868.651 337.493, 1876.750 334.670 C 1881.842 332.894, 1882 332.725, 1882 329.037 L 1882 325.234 1877.750 326.763 C 1875.412 327.604, 1869.675 328.483, 1865 328.715 C 1857.560 329.086, 1855.946 328.850, 1852.058 326.819 C 1846.617 323.978, 1844.413 319.973, 1843.076 310.500 C 1840.634 293.195, 1845.390 279.652, 1854.832 277.030 C 1856.850 276.470, 1863.338 276.009, 1869.250 276.006 L 1880 276 1880 272.636 C 1880 269.392, 1879.834 269.249, 1875.360 268.636 C 1869.419 267.822, 1860.612 267.995, 1855.500 269.026 M 1058 302.500 L 1058 336 1080.500 336 L 1103 336 1103 332 L 1103 328 1084.967 328 L 1066.934 328 1067.217 316.750 L 1067.500 305.500 1082.750 305.224 L 1098 304.948 1098 301.474 L 1098 298 1082.500 298 L 1067 298 1067 287.500 L 1067 277 1084.500 277 L 1102 277 1102 273 L 1102 269 1080 269 L 1058 269 1058 302.500 M 1160.197 284.014 C 1165.864 292.271, 1170.906 299.630, 1171.402 300.367 C 1172.039 301.313, 1168.896 306.750, 1160.715 318.853 L 1149.125 336 1153.963 336 L 1158.802 336 1167.555 322.500 C 1172.369 315.075, 1176.631 309, 1177.025 309 C 1177.419 309, 1181.875 315.075, 1186.927 322.500 L 1196.112 336 1201.056 336 C 1203.775 336, 1206 335.768, 1206 335.484 C 1206 335.201, 1200.825 327.567, 1194.500 318.521 C 1188.175 309.475, 1183 301.787, 1183 301.437 C 1183 301.088, 1187.725 293.863, 1193.500 285.384 C 1199.275 276.904, 1204 269.749, 1204 269.483 C 1204 269.217, 1202.045 269, 1199.656 269 L 1195.311 269 1186.528 282.185 C 1178.318 294.510, 1177.651 295.245, 1176.311 293.435 C 1175.522 292.371, 1171.642 286.445, 1167.689 280.267 L 1160.500 269.034 1155.197 269.017 L 1149.894 269 1160.197 284.014 M 1257 302.385 L 1257 336 1261 336 L 1265 336 1265 325.118 L 1265 314.236 1277.838 313.836 C 1289.150 313.484, 1291.261 313.136, 1295.588 310.909 C 1303.940 306.612, 1307.686 296.111, 1305.057 284.363 C 1302.378 272.393, 1297.107 269.843, 1273.750 269.218 L 1257 268.769 1257 302.385 M 1359 302.500 L 1359 336 1381 336 L 1403 336 1403 332 L 1403 328 1384.967 328 L 1366.934 328 1367.217 316.750 L 1367.500 305.500 1382.751 305.500 L 1398.002 305.500 1398.001 301.750 L 1398 298 1382.500 298 L 1367 298 1367 287.500 L 1367 277 1384.500 277 L 1402 277 1402 273 L 1402 269 1380.500 269 L 1359 269 1359 302.500 M 1457 302.500 L 1457 336 1461 336 L 1465 336 1465 324 L 1465 312 1472.954 312 L 1480.908 312 1489.041 324 L 1497.174 336 1502.122 336 C 1507.983 336, 1508.253 336.904, 1498.075 322.500 C 1494.189 317, 1491.007 311.973, 1491.005 311.329 C 1491.002 310.686, 1492.377 309.857, 1494.059 309.487 C 1501.587 307.834, 1506.924 297.450, 1505.673 286.890 C 1503.983 272.614, 1497.037 269, 1471.290 269 L 1457 269 1457 302.500 M 1561 302.500 L 1561 336 1565 336 L 1569 336 1569 302.500 L 1569 269 1565 269 L 1561 269 1561 302.500 M 1627 302.500 L 1627 336 1649 336 L 1671 336 1671 332 L 1671 328 1652.967 328 L 1634.934 328 1635.217 316.750 L 1635.500 305.500 1650.751 305.500 L 1666.002 305.500 1666.001 301.750 L 1666 298 1650.500 298 L 1635 298 1635 287.500 L 1635 277 1652.500 277 L 1670 277 1670 273 L 1670 269 1648.500 269 L 1627 269 1627 302.500 M 1724 302.445 L 1724 336 1728 336 L 1732 336 1732 310 C 1732 295.700, 1732.338 284.019, 1732.750 284.043 C 1733.162 284.066, 1741.819 295.766, 1751.986 310.043 L 1770.472 336 1774.736 336 L 1779 336 1779 302.500 L 1779 269 1775.500 269 L 1772 269 1772 295.583 C 1772 311.110, 1771.622 322.028, 1771.091 321.833 C 1770.591 321.650, 1761.928 309.800, 1751.841 295.500 L 1733.500 269.500 1728.750 269.195 L 1724 268.890 1724 302.445 M 1934 302.500 L 1934 336 1956.250 336.001 L 1978.500 336.001 1978.396 332.251 L 1978.291 328.500 1960.613 328.227 L 1942.935 327.954 1943.217 316.727 L 1943.500 305.500 1958.170 305.500 L 1972.839 305.500 1973.196 301.750 L 1973.553 298 1958.276 298 L 1943 298 1943 287.500 L 1943 277 1960 277 L 1977 277 1977 273 L 1977 269 1955.500 269 L 1934 269 1934 302.500 M 1265 292.108 L 1265 307.216 1276.250 306.816 C 1292.890 306.226, 1297 303.108, 1297 291.079 C 1297 279.951, 1292.607 277, 1276.040 277 L 1265 277 1265 292.108 M 1465.222 290.750 L 1465.500 304.500 1476.014 304.409 C 1492.341 304.268, 1497 301.018, 1497 289.772 C 1497 279.601, 1492.725 277, 1476.004 277 L 1464.944 277 1465.222 290.750" stroke="none" fill="black" fill-rule="evenodd"/>
</svg>